<mxfile host="app.diagrams.net" modified="2021-03-27T10:45:51.493Z" agent="5.0 (Macintosh; Intel Mac OS X 10_13_6) AppleWebKit/537.36 (KHTML, like Gecko) Chrome/89.0.4389.90 Safari/537.36" etag="v8J4oD_dZjWj-_3z4_jc" version="14.2.4" type="github">
  <diagram id="BEoB_15Z5SDIjc7EveSc" name="Page-1">
    <mxGraphModel dx="946" dy="557" grid="1" gridSize="10" guides="1" tooltips="1" connect="1" arrows="1" fold="1" page="1" pageScale="1" pageWidth="827" pageHeight="1169" math="0" shadow="0">
      <root>
        <mxCell id="0" />
        <mxCell id="1" parent="0" />
        <mxCell id="sh-tbkZXaVZk4sKbNo-1-1" value="" style="rounded=0;whiteSpace=wrap;html=1;" vertex="1" parent="1">
          <mxGeometry x="100" y="100" width="200" height="300" as="geometry" />
        </mxCell>
        <mxCell id="sh-tbkZXaVZk4sKbNo-1-2" value="" style="rounded=0;whiteSpace=wrap;html=1;" vertex="1" parent="1">
          <mxGeometry x="390" y="100" width="250" height="300" as="geometry" />
        </mxCell>
        <mxCell id="sh-tbkZXaVZk4sKbNo-1-3" value="事务A" style="text;html=1;strokeColor=none;fillColor=none;align=center;verticalAlign=middle;whiteSpace=wrap;rounded=0;" vertex="1" parent="1">
          <mxGeometry x="180" y="110" width="40" height="20" as="geometry" />
        </mxCell>
        <mxCell id="sh-tbkZXaVZk4sKbNo-1-4" value="事务B" style="text;html=1;strokeColor=none;fillColor=none;align=center;verticalAlign=middle;whiteSpace=wrap;rounded=0;" vertex="1" parent="1">
          <mxGeometry x="505" y="110" width="40" height="20" as="geometry" />
        </mxCell>
        <mxCell id="sh-tbkZXaVZk4sKbNo-1-5" value="select * from t_user where id=1;" style="text;html=1;strokeColor=none;fillColor=none;align=center;verticalAlign=middle;whiteSpace=wrap;rounded=0;" vertex="1" parent="1">
          <mxGeometry x="110" y="170" width="180" height="20" as="geometry" />
        </mxCell>
        <mxCell id="sh-tbkZXaVZk4sKbNo-1-7" value="&lt;br&gt;update t_user set age=22 where id =1;" style="text;html=1;strokeColor=none;fillColor=none;align=center;verticalAlign=middle;whiteSpace=wrap;rounded=0;" vertex="1" parent="1">
          <mxGeometry x="375" y="190" width="280" height="30" as="geometry" />
        </mxCell>
        <mxCell id="sh-tbkZXaVZk4sKbNo-1-8" value="begin" style="text;html=1;strokeColor=none;fillColor=none;align=center;verticalAlign=middle;whiteSpace=wrap;rounded=0;" vertex="1" parent="1">
          <mxGeometry x="400" y="160" width="40" height="20" as="geometry" />
        </mxCell>
        <mxCell id="sh-tbkZXaVZk4sKbNo-1-9" value="commit" style="text;html=1;strokeColor=none;fillColor=none;align=center;verticalAlign=middle;whiteSpace=wrap;rounded=0;" vertex="1" parent="1">
          <mxGeometry x="400" y="240" width="40" height="20" as="geometry" />
        </mxCell>
        <mxCell id="sh-tbkZXaVZk4sKbNo-1-11" value="select * from t_user where id=1;" style="text;html=1;strokeColor=none;fillColor=none;align=center;verticalAlign=middle;whiteSpace=wrap;rounded=0;" vertex="1" parent="1">
          <mxGeometry x="110" y="280" width="180" height="20" as="geometry" />
        </mxCell>
      </root>
    </mxGraphModel>
  </diagram>
</mxfile>
